<svg width="18" height="18" viewBox="0 0 18 18" fill="none" xmlns="http://www.w3.org/2000/svg">
<g clip-path="url(#clip0_95_69)">
<path fill-rule="evenodd" clip-rule="evenodd" d="M13.9497 5.46455C14.3403 5.07402 14.3403 4.44086 13.9497 4.05033C13.5592 3.65981 12.9261 3.65981 12.5355 4.05033L9 7.58587L5.46447 4.05033C5.07394 3.65981 4.44078 3.65981 4.05025 4.05033C3.65973 4.44086 3.65973 5.07402 4.05025 5.46455L7.58579 9.00008L4.05025 12.5356C3.65973 12.9261 3.65973 13.5593 4.05025 13.9498C4.44078 14.3404 5.07394 14.3404 5.46447 13.9498L9 10.4143L12.5355 13.9498C12.9261 14.3404 13.5592 14.3404 13.9497 13.9498C14.3403 13.5593 14.3403 12.9261 13.9497 12.5356L10.4142 9.00008L13.9497 5.46455Z" fill="black"/>
</g>
<defs>
<clipPath id="clip0_95_69">
<rect width="18" height="18" fill="white"/>
</clipPath>
</defs>
</svg>
